<?xml version="1.0" encoding="iso-8859-1"?>
<!-- Generator: Adobe Illustrator 19.0.0, SVG Export Plug-In . SVG Version: 6.00 Build 0)  -->
<svg xmlns="http://www.w3.org/2000/svg" xmlns:xlink="http://www.w3.org/1999/xlink" version="1.1" id="Capa_1" x="0px" y="0px" viewBox="0 0 512 512" style="enable-background:new 0 0 512 512;" xml:space="preserve" width="512px" height="512px">
<g>
	<g>
		<path d="M468.261,43.739c-58.319-58.319-153.211-58.319-211.53,0c-54.74,54.739-58.099,141.701-10.077,200.396l-20.687,20.687    c-16.956-8.169-37.966-5.232-52.008,8.811L13.318,434.273c-17.757,17.757-17.757,46.651,0,64.409    C22.196,507.561,33.859,512,45.522,512c11.663,0,23.326-4.439,32.204-13.318l160.64-160.64    c14.044-14.043,16.98-35.052,8.811-52.008l20.687-20.687c27.429,22.443,61.025,33.662,94.631,33.662    c38.297,0,76.609-14.583,105.764-43.739C526.58,196.95,526.58,102.058,468.261,43.739z M217.156,316.831L56.515,477.471    c-6.062,6.061-15.925,6.061-21.986,0c-6.062-6.062-6.062-15.925,0-21.987l160.64-160.64c3.031-3.031,7.012-4.546,10.993-4.546    c3.981,0,7.962,1.516,10.993,4.546C223.218,300.906,223.218,310.77,217.156,316.831z M447.05,234.058    c-46.624,46.623-122.484,46.623-169.107,0c-46.623-46.623-46.623-122.485,0-169.107c23.311-23.311,53.933-34.967,84.554-34.967    c30.621,0,61.242,11.656,84.554,34.967C493.673,111.573,493.673,187.435,447.05,234.058z" fill="#000000"/>
	</g>
</g>
<g>
</g>
<g>
</g>
<g>
</g>
<g>
</g>
<g>
</g>
<g>
</g>
<g>
</g>
<g>
</g>
<g>
</g>
<g>
</g>
<g>
</g>
<g>
</g>
<g>
</g>
<g>
</g>
<g>
</g>
</svg>
